<mxfile host="app.diagrams.net" modified="2021-08-04T12:14:16.895Z" agent="5.0 (Macintosh; Intel Mac OS X 10_15_7) AppleWebKit/537.36 (KHTML, like Gecko) Chrome/92.0.4515.107 Safari/537.36" etag="QR8kQ7i6gRh15xnPvwBk" version="14.6.13" type="github">
  <diagram id="rtn-FlfzsLyjM5EzG9ZA" name="Page-1">
    <mxGraphModel dx="1426" dy="769" grid="1" gridSize="10" guides="1" tooltips="1" connect="1" arrows="1" fold="1" page="1" pageScale="1" pageWidth="3000" pageHeight="4000" math="0" shadow="0">
      <root>
        <mxCell id="0" />
        <mxCell id="1" parent="0" />
        <mxCell id="nQwwi5agY-qM9LXN6r22-22" value="" style="whiteSpace=wrap;html=1;aspect=fixed;" vertex="1" parent="1">
          <mxGeometry x="540" y="190" width="280" height="280" as="geometry" />
        </mxCell>
        <mxCell id="nQwwi5agY-qM9LXN6r22-2" value="" style="rounded=0;whiteSpace=wrap;html=1;direction=south;" vertex="1" parent="1">
          <mxGeometry x="260" y="160" width="200" height="360" as="geometry" />
        </mxCell>
        <mxCell id="nQwwi5agY-qM9LXN6r22-14" style="edgeStyle=orthogonalEdgeStyle;rounded=0;orthogonalLoop=1;jettySize=auto;html=1;exitX=1;exitY=0.5;exitDx=0;exitDy=0;fillColor=#d5e8d4;strokeColor=#82b366;" edge="1" parent="1" source="nQwwi5agY-qM9LXN6r22-3" target="nQwwi5agY-qM9LXN6r22-12">
          <mxGeometry relative="1" as="geometry" />
        </mxCell>
        <mxCell id="nQwwi5agY-qM9LXN6r22-3" value="shard1" style="ellipse;whiteSpace=wrap;html=1;" vertex="1" parent="1">
          <mxGeometry x="300" y="230" width="120" height="80" as="geometry" />
        </mxCell>
        <mxCell id="nQwwi5agY-qM9LXN6r22-15" style="edgeStyle=orthogonalEdgeStyle;rounded=0;orthogonalLoop=1;jettySize=auto;html=1;entryX=0;entryY=0.5;entryDx=0;entryDy=0;fillColor=#d5e8d4;strokeColor=#82b366;" edge="1" parent="1" source="nQwwi5agY-qM9LXN6r22-4" target="nQwwi5agY-qM9LXN6r22-12">
          <mxGeometry relative="1" as="geometry" />
        </mxCell>
        <mxCell id="nQwwi5agY-qM9LXN6r22-4" value="shard2" style="ellipse;whiteSpace=wrap;html=1;" vertex="1" parent="1">
          <mxGeometry x="300" y="380" width="120" height="80" as="geometry" />
        </mxCell>
        <mxCell id="nQwwi5agY-qM9LXN6r22-5" value="manager" style="ellipse;whiteSpace=wrap;html=1;aspect=fixed;" vertex="1" parent="1">
          <mxGeometry x="430" y="320" width="50" height="50" as="geometry" />
        </mxCell>
        <mxCell id="nQwwi5agY-qM9LXN6r22-6" value="源端" style="text;html=1;strokeColor=none;fillColor=none;align=center;verticalAlign=middle;whiteSpace=wrap;rounded=0;" vertex="1" parent="1">
          <mxGeometry x="330" y="170" width="60" height="30" as="geometry" />
        </mxCell>
        <mxCell id="nQwwi5agY-qM9LXN6r22-7" value="" style="rounded=0;whiteSpace=wrap;html=1;direction=south;" vertex="1" parent="1">
          <mxGeometry x="890" y="160" width="200" height="360" as="geometry" />
        </mxCell>
        <mxCell id="nQwwi5agY-qM9LXN6r22-17" style="edgeStyle=orthogonalEdgeStyle;rounded=0;orthogonalLoop=1;jettySize=auto;html=1;entryX=1;entryY=0.5;entryDx=0;entryDy=0;fillColor=#ffe6cc;strokeColor=#d79b00;" edge="1" parent="1" source="nQwwi5agY-qM9LXN6r22-8" target="nQwwi5agY-qM9LXN6r22-13">
          <mxGeometry relative="1" as="geometry" />
        </mxCell>
        <mxCell id="nQwwi5agY-qM9LXN6r22-8" value="shard1" style="ellipse;whiteSpace=wrap;html=1;" vertex="1" parent="1">
          <mxGeometry x="940" y="210" width="120" height="80" as="geometry" />
        </mxCell>
        <mxCell id="nQwwi5agY-qM9LXN6r22-18" style="edgeStyle=orthogonalEdgeStyle;rounded=0;orthogonalLoop=1;jettySize=auto;html=1;entryX=1;entryY=0.5;entryDx=0;entryDy=0;fillColor=#ffe6cc;strokeColor=#d79b00;" edge="1" parent="1" source="nQwwi5agY-qM9LXN6r22-9" target="nQwwi5agY-qM9LXN6r22-13">
          <mxGeometry relative="1" as="geometry" />
        </mxCell>
        <mxCell id="nQwwi5agY-qM9LXN6r22-9" value="shard3" style="ellipse;whiteSpace=wrap;html=1;" vertex="1" parent="1">
          <mxGeometry x="940" y="420" width="120" height="80" as="geometry" />
        </mxCell>
        <mxCell id="nQwwi5agY-qM9LXN6r22-10" value="manager" style="ellipse;whiteSpace=wrap;html=1;aspect=fixed;" vertex="1" parent="1">
          <mxGeometry x="870" y="315" width="50" height="50" as="geometry" />
        </mxCell>
        <mxCell id="nQwwi5agY-qM9LXN6r22-11" value="目标端" style="text;html=1;strokeColor=none;fillColor=none;align=center;verticalAlign=middle;whiteSpace=wrap;rounded=0;" vertex="1" parent="1">
          <mxGeometry x="960" y="170" width="60" height="30" as="geometry" />
        </mxCell>
        <mxCell id="nQwwi5agY-qM9LXN6r22-16" style="edgeStyle=orthogonalEdgeStyle;rounded=0;orthogonalLoop=1;jettySize=auto;html=1;entryX=0;entryY=0.5;entryDx=0;entryDy=0;fillColor=#d5e8d4;strokeColor=#82b366;" edge="1" parent="1" source="nQwwi5agY-qM9LXN6r22-12" target="nQwwi5agY-qM9LXN6r22-10">
          <mxGeometry relative="1" as="geometry" />
        </mxCell>
        <mxCell id="nQwwi5agY-qM9LXN6r22-12" value="正向任务" style="rounded=1;whiteSpace=wrap;html=1;" vertex="1" parent="1">
          <mxGeometry x="610" y="270" width="120" height="60" as="geometry" />
        </mxCell>
        <mxCell id="nQwwi5agY-qM9LXN6r22-19" style="edgeStyle=orthogonalEdgeStyle;rounded=0;orthogonalLoop=1;jettySize=auto;html=1;entryX=1;entryY=0.5;entryDx=0;entryDy=0;fillColor=#ffe6cc;strokeColor=#d79b00;" edge="1" parent="1" source="nQwwi5agY-qM9LXN6r22-13" target="nQwwi5agY-qM9LXN6r22-5">
          <mxGeometry relative="1" as="geometry" />
        </mxCell>
        <mxCell id="nQwwi5agY-qM9LXN6r22-13" value="反向任务" style="rounded=1;whiteSpace=wrap;html=1;" vertex="1" parent="1">
          <mxGeometry x="610" y="350" width="120" height="60" as="geometry" />
        </mxCell>
        <mxCell id="nQwwi5agY-qM9LXN6r22-21" style="edgeStyle=orthogonalEdgeStyle;rounded=0;orthogonalLoop=1;jettySize=auto;html=1;entryX=1;entryY=0.5;entryDx=0;entryDy=0;fillColor=#ffe6cc;strokeColor=#d79b00;" edge="1" parent="1" source="nQwwi5agY-qM9LXN6r22-20" target="nQwwi5agY-qM9LXN6r22-13">
          <mxGeometry relative="1" as="geometry" />
        </mxCell>
        <mxCell id="nQwwi5agY-qM9LXN6r22-20" value="shard2" style="ellipse;whiteSpace=wrap;html=1;" vertex="1" parent="1">
          <mxGeometry x="940" y="315" width="120" height="80" as="geometry" />
        </mxCell>
        <mxCell id="nQwwi5agY-qM9LXN6r22-23" value="双向同步主任务" style="text;html=1;strokeColor=none;fillColor=none;align=center;verticalAlign=middle;whiteSpace=wrap;rounded=0;" vertex="1" parent="1">
          <mxGeometry x="650" y="200" width="60" height="30" as="geometry" />
        </mxCell>
      </root>
    </mxGraphModel>
  </diagram>
</mxfile>
